# xmcd CD database file
#
# Track frame offsets:
#	150
#	16041
#	40097
#	66627
#	82850
#	118958
#	141881
#	163400
#	194595
#	215504
#	226310
#	254078
#	275784
#	301558
#
# Disc length: 4322 seconds
#
# Revision: 0
# Processed by: cddbd v1.5.2PL0 Copyright (c) Steve Scherf et al.
# Submitted via: CDex 1.60beta1-cs1
#
DISCID=d010e00e
DTITLE=Georges Arvanitas - Georges Arvanitas Quartet
DYEAR=1900
DGENRE=Jazz
TTITLE0=Quartet
TTITLE1=The Peacocks
TTITLE2=Body and Soul
TTITLE3=Billy's Bounce
TTITLE4=Fable of Faubus
TTITLE5=Sophisticated Lady
TTITLE6=My Love goes through Time
TTITLE7=Love Man
TTITLE8=Changing the Dex
TTITLE9=Crepuscule with Nelly
TTITLE10=Foot Prints
TTITLE11=Midnight Sun
TTITLE12=Venusia
TTITLE13=Good bye Pork Pie Hat
EXTD=
EXTT0=
EXTT1=
EXTT2=
EXTT3=
EXTT4=
EXTT5=
EXTT6=
EXTT7=
EXTT8=
EXTT9=
EXTT10=
EXTT11=
EXTT12=
EXTT13=
PLAYORDER=
